<?xml version="1.0" standalone="no"?>
<!DOCTYPE svg PUBLIC "-//W3C//DTD SVG 20010904//EN"
 "http://www.w3.org/TR/2001/REC-SVG-20010904/DTD/svg10.dtd">
<svg version="1.0" xmlns="http://www.w3.org/2000/svg"
 width="270.000000pt" height="148.000000pt" viewBox="0 0 270.000000 148.000000"
 preserveAspectRatio="xMidYMid meet">

<g transform="translate(0.000000,148.000000) scale(0.100000,-0.100000)"
fill="#000000" stroke="none">
<path d="M1350 740 l0 -740 675 0 675 0 0 740 0 740 -675 0 -675 0 0 -740z
m945 581 c61 -35 125 -103 125 -133 0 -21 -35 -68 -52 -68 -11 0 -158 120
-158 129 0 4 9 16 20 26 11 10 17 22 14 27 -4 6 -16 -2 -28 -17 -15 -18 -27
-24 -39 -20 -23 9 -22 18 9 54 32 38 46 38 109 2z m-119 -72 c3 -6 -17 -44
-45 -85 -29 -41 -50 -74 -47 -74 3 0 28 30 57 68 28 37 55 66 61 64 18 -5 148
-114 148 -124 0 -17 -243 -259 -256 -254 -20 8 -144 110 -144 118 0 18 195
298 207 298 6 0 15 -5 19 -11z m-166 -361 c44 -35 80 -69 80 -76 0 -30 -32
-21 -92 25 -34 26 -68 53 -76 59 -13 9 -10 54 4 54 2 0 40 -28 84 -62z m-35
-50 c30 -24 54 -46 54 -50 1 -4 -12 -28 -29 -55 -26 -43 -38 -79 -55 -165 -3
-16 -12 -28 -19 -28 -37 0 -149 -45 -221 -87 -44 -27 -90 -49 -102 -50 -20 -2
-20 1 12 70 33 73 65 183 65 228 0 35 9 44 65 65 49 18 133 75 148 101 12 20
24 16 82 -29z m417 -67 c67 -42 103 -108 103 -186 -1 -94 -49 -170 -139 -218
-40 -21 -50 -22 -421 -22 -331 0 -380 2 -380 15 0 13 50 16 370 20 336 5 373
7 405 24 49 26 79 55 101 98 60 117 -27 258 -158 258 -71 0 -143 -68 -143
-135 0 -67 76 -134 135 -119 32 8 67 52 60 75 -6 18 26 45 39 32 10 -11 6 -67
-8 -91 -28 -52 -106 -77 -169 -53 -72 27 -118 121 -97 195 24 87 93 136 191
136 55 0 72 -5 111 -29z m-787 -511 c3 -5 -2 -10 -11 -10 -16 0 -16 -1 1 -14
11 -8 16 -19 12 -30 -8 -19 -38 -18 -45 2 -2 8 2 10 15 6 17 -6 17 -6 -1 8
-12 9 -17 21 -13 32 7 18 32 22 42 6z m70 0 c3 -5 -4 -11 -17 -11 -17 -1 -18
-3 -5 -6 9 -2 17 -9 17 -14 0 -5 -8 -9 -17 -10 -12 -1 -9 -4 7 -9 22 -6 23 -8
8 -15 -31 -13 -48 2 -48 40 0 30 3 35 24 35 14 0 28 -4 31 -10z m79 -12 c13
-21 -2 -51 -26 -56 -16 -3 -48 23 -48 38 0 15 32 41 48 38 8 -2 20 -11 26 -20z
m106 12 c14 -9 12 -11 -20 -14 -21 -2 -19 -31 2 -31 26 0 32 -13 8 -20 -39
-12 -67 34 -38 63 14 14 28 15 48 2z m78 -2 c17 -17 15 -43 -4 -59 -31 -26
-70 25 -44 56 15 18 32 19 48 3z m80 -11 c3 -12 -4 -20 -17 -24 -12 -3 -21
-12 -21 -20 0 -8 -4 -11 -10 -8 -11 7 -14 58 -3 69 13 13 48 1 51 -17z m52 13
c13 21 23 5 11 -17 -5 -10 -12 -27 -16 -38 -5 -17 -9 -13 -21 20 -17 50 -17
50 2 34 13 -10 17 -10 24 1z m51 -18 c0 -11 4 -8 10 8 9 23 12 23 23 8 11 -15
13 -15 24 0 11 14 12 12 7 -18 -7 -46 -22 -60 -33 -30 l-9 24 -6 -25 c-8 -30
-24 -16 -33 30 -5 25 -4 32 4 27 7 -4 12 -15 13 -24z m134 -9 c1 -35 -4 -40
-23 -21 -9 9 -12 8 -12 -6 0 -9 -4 -14 -10 -11 -11 7 -14 58 -3 69 4 4 16 6
28 4 15 -2 20 -11 20 -35z m35 -4 c0 -24 -4 -38 -10 -34 -17 10 -11 75 7 75 2
0 3 -18 3 -41z m70 31 c0 -5 -4 -10 -10 -10 -5 0 -10 -11 -10 -25 0 -14 -4
-25 -10 -25 -5 0 -10 11 -10 25 0 14 -5 25 -11 25 -5 0 -7 5 -4 10 3 6 17 10
31 10 13 0 24 -4 24 -10z m60 0 c0 -5 -8 -11 -17 -11 -17 -1 -17 -2 0 -6 9 -2
17 -9 17 -14 0 -5 -8 -10 -17 -10 -17 -1 -17 -2 0 -6 25 -7 21 -25 -5 -21 -19
2 -24 10 -26 41 -3 34 -1 37 22 37 14 0 26 -4 26 -10z m70 -5 c10 -11 10 -19
2 -27 -6 -6 -8 -18 -5 -27 5 -13 3 -13 -14 2 -21 18 -21 18 -26 0 -3 -10 -5 1
-6 25 -1 35 2 42 18 42 10 0 24 -7 31 -15z m-777 -102 c-3 -7 -9 -10 -14 -7
-14 8 -11 21 5 21 8 0 12 -6 9 -14z m57 3 c0 -8 -5 -18 -11 -22 -14 -8 -33 11
-25 25 10 16 36 13 36 -3z m42 -1 c8 20 8 20 5 0 -1 -11 -9 -20 -17 -20 -8 0
-16 9 -18 20 -3 20 -3 20 9 0 12 -19 12 -19 21 0z m48 0 c0 -8 -7 -15 -15 -15
-8 0 -15 7 -15 15 0 8 7 15 15 15 8 0 15 -7 15 -15z m66 -2 c-4 -24 -21 -27
-23 -3 -1 11 4 20 12 20 7 0 12 -8 11 -17z m38 -16 c7 -6 6 -7 -4 -4 -8 2 -16
12 -17 23 -2 13 -1 15 4 4 3 -8 11 -19 17 -23z m56 19 c0 -8 -5 -18 -11 -22
-14 -8 -33 11 -25 25 10 16 36 13 36 -3z m38 7 c-10 -2 -18 -8 -18 -13 0 -5 8
-7 18 -3 13 5 14 3 5 -7 -13 -14 -33 -5 -33 16 0 8 9 14 23 13 16 -1 18 -2 5
-6z m52 -8 c0 -8 -7 -15 -15 -15 -9 0 -12 6 -9 15 4 8 10 15 15 15 5 0 9 -7 9
-15z m60 -3 c0 -8 -6 -12 -14 -9 -8 3 -17 1 -20 -6 -2 -7 -5 -2 -5 10 -1 16 4
21 19 20 11 -1 20 -8 20 -15z m60 1 c0 -8 -4 -12 -9 -9 -5 4 -12 0 -14 -6 -3
-7 -6 -4 -6 8 -1 12 5 21 14 21 8 0 15 -7 15 -14z m37 -3 c-1 -11 -5 -20 -9
-20 -4 0 -8 9 -8 20 0 11 4 20 9 20 6 0 9 -9 8 -20z m53 3 c0 -15 -2 -15 -9
-4 -7 11 -10 10 -14 -5 -4 -16 -5 -16 -6 4 -1 13 5 22 14 22 8 0 15 -8 15 -17z
m37 -3 c-2 -24 -21 -21 -25 3 -2 10 3 17 12 17 9 0 14 -8 13 -20z"/>
<path d="M2059 1063 c-13 -16 -12 -17 4 -4 9 7 17 15 17 17 0 8 -8 3 -21 -13z"/>
<path d="M1787 674 c-4 -4 -7 -17 -7 -29 0 -12 -37 -65 -86 -124 -47 -56 -84
-105 -81 -107 3 -3 44 42 91 100 55 66 95 106 109 108 30 4 32 52 2 56 -12 2
-24 0 -28 -4z"/>
<path d="M1704 239 c-8 -14 11 -33 25 -25 16 10 13 36 -3 36 -8 0 -18 -5 -22
-11z"/>
<path d="M1900 229 c0 -24 23 -21 28 4 2 10 -3 17 -12 17 -10 0 -16 -9 -16
-21z"/>
<path d="M1980 240 c0 -5 5 -10 10 -10 6 0 10 5 10 10 0 6 -4 10 -10 10 -5 0
-10 -4 -10 -10z"/>
<path d="M2220 240 c0 -5 5 -10 10 -10 6 0 10 5 10 10 0 6 -4 10 -10 10 -5 0
-10 -4 -10 -10z"/>
<path d="M2455 240 c4 -6 11 -8 16 -5 14 9 11 15 -7 15 -8 0 -12 -5 -9 -10z"/>
<path d="M832 1311 c-19 -26 -20 -31 -6 -42 13 -11 19 -8 39 17 13 16 26 26
30 22 4 -4 -3 -19 -15 -35 l-22 -28 29 -23 c15 -12 52 -41 81 -64 l53 -41 26
25 c34 35 25 70 -31 123 -80 78 -148 94 -184 46z"/>
<path d="M757 1197 c-76 -107 -160 -237 -156 -240 2 -2 37 -30 78 -62 l74 -58
123 129 c68 71 123 132 124 135 0 8 -143 119 -152 119 -4 0 -43 -47 -88 -105
-46 -58 -85 -105 -88 -105 -2 0 0 6 5 13 27 34 153 216 153 220 0 3 -7 7 -15
11 -10 3 -29 -15 -58 -57z"/>
<path d="M564 929 c-12 -21 144 -148 165 -134 22 13 9 31 -59 83 -80 61 -95
68 -106 51z"/>
<path d="M505 828 c-34 -27 -82 -55 -111 -65 -51 -16 -52 -17 -58 -62 -8 -59
-53 -205 -77 -253 -11 -21 -17 -38 -15 -38 11 0 187 221 182 229 -9 13 3 39
21 45 22 9 52 -21 46 -45 -3 -11 -17 -22 -32 -26 -17 -3 -50 -34 -96 -90 -100
-122 -107 -133 -64 -101 48 37 165 93 232 113 53 15 57 18 62 53 11 64 34 124
62 160 l27 35 -35 29 c-84 72 -77 71 -144 16z"/>
<path d="M845 781 c-70 -32 -105 -86 -105 -162 0 -49 19 -88 60 -122 82 -69
204 -28 217 72 5 37 3 41 -16 41 -17 0 -21 -6 -21 -30 0 -86 -133 -105 -181
-26 -75 123 74 256 211 186 115 -59 125 -231 18 -310 -64 -47 -88 -50 -464
-50 -347 0 -354 0 -354 -20 0 -20 7 -20 354 -20 395 0 422 4 495 67 122 104
105 299 -31 367 -62 31 -126 34 -183 7z"/>
<path d="M223 263 c-19 -7 -16 -30 5 -38 16 -7 15 -8 -3 -16 -18 -8 -18 -8 4
-6 32 3 38 23 9 33 l-23 8 25 6 c18 4 21 8 10 11 -8 4 -21 4 -27 2z"/>
<path d="M280 233 c0 -28 4 -33 23 -32 20 0 20 1 3 8 -19 7 -19 8 0 15 19 8
19 8 -1 16 -17 7 -17 9 -2 9 24 1 22 17 -3 17 -16 0 -20 -7 -20 -33z"/>
<path d="M350 255 c-19 -23 -8 -50 22 -53 34 -4 50 34 22 55 -23 17 -29 16
-44 -2z m40 -25 c0 -21 -24 -28 -35 -10 -8 14 3 30 21 30 8 0 14 -9 14 -20z"/>
<path d="M466 254 c-9 -8 -16 -19 -16 -23 0 -16 29 -33 47 -28 14 4 13 5 -4 6
-31 1 -32 41 -2 41 11 0 17 5 14 10 -9 14 -21 12 -39 -6z"/>
<path d="M545 256 c-27 -20 -15 -51 20 -51 23 0 31 5 33 22 4 29 -28 47 -53
29z m38 -12 c9 -10 -4 -34 -18 -34 -17 0 -28 17 -20 30 7 11 28 13 38 4z"/>
<path d="M680 265 c0 -6 4 -15 9 -20 5 -6 11 -17 13 -27 2 -11 9 -5 21 20 17
34 17 36 1 20 -16 -16 -18 -16 -30 0 -8 9 -14 12 -14 7z"/>
<path d="M750 263 c0 -6 5 -24 11 -40 9 -25 11 -26 21 -10 9 18 10 18 23 0 16
-21 20 -18 29 20 4 16 2 27 -4 27 -5 0 -10 -8 -10 -17 0 -15 -2 -14 -14 3 -14
18 -15 18 -22 0 -7 -17 -8 -17 -20 5 -7 13 -13 19 -14 12z"/>
<path d="M861 233 c0 -21 3 -32 6 -25 4 9 9 10 18 2 10 -8 14 -4 19 16 5 18 3
30 -6 35 -27 18 -38 9 -37 -28z m34 7 c-3 -5 -10 -10 -16 -10 -5 0 -9 5 -9 10
0 6 7 10 16 10 8 0 12 -4 9 -10z"/>
<path d="M1028 233 c-4 -30 -2 -33 22 -32 22 0 22 1 6 8 -19 7 -19 8 0 15 19
8 19 8 -1 16 -17 7 -17 9 -2 9 23 1 22 17 -2 17 -14 0 -20 -9 -23 -33z"/>
<path d="M620 228 c0 -18 4 -28 8 -22 4 6 15 14 25 17 24 9 17 31 -11 35 -19
3 -22 -1 -22 -30z m30 12 c0 -5 -4 -10 -10 -10 -5 0 -10 5 -10 10 0 6 5 10 10
10 6 0 10 -4 10 -10z"/>
<path d="M932 230 c0 -19 2 -27 5 -17 2 9 2 25 0 35 -3 9 -5 1 -5 -18z"/>
<path d="M968 230 c5 -36 22 -40 22 -6 0 13 6 27 13 29 6 3 0 6 -14 6 -23 1
-25 -2 -21 -29z"/>
<path d="M1090 228 c0 -26 3 -30 11 -18 8 11 12 12 16 3 8 -22 18 -14 20 17 2
26 -1 30 -22 30 -22 0 -25 -5 -25 -32z m40 12 c0 -5 -7 -10 -15 -10 -8 0 -15
5 -15 10 0 6 7 10 15 10 8 0 15 -4 15 -10z"/>
<path d="M411 154 c0 -11 3 -14 6 -6 3 7 2 16 -1 19 -3 4 -6 -2 -5 -13z"/>
<path d="M481 154 c0 -11 3 -14 6 -6 3 7 2 16 -1 19 -3 4 -6 -2 -5 -13z"/>
<path d="M550 165 c0 -2 6 -8 13 -14 10 -8 14 -7 14 2 0 8 -6 14 -14 14 -7 0
-13 -1 -13 -2z"/>
<path d="M740 155 c0 -8 4 -15 8 -15 5 0 9 7 9 15 0 8 -4 15 -9 15 -4 0 -8 -7
-8 -15z"/>
<path d="M780 166 c0 -2 8 -10 18 -17 15 -13 16 -12 3 4 -13 16 -21 21 -21 13z"/>
<path d="M871 154 c0 -11 3 -14 6 -6 3 7 2 16 -1 19 -3 4 -6 -2 -5 -13z"/>
<path d="M901 154 c0 -11 3 -14 6 -6 3 7 2 16 -1 19 -3 4 -6 -2 -5 -13z"/>
<path d="M961 154 c0 -11 3 -14 6 -6 3 7 2 16 -1 19 -3 4 -6 -2 -5 -13z"/>
</g>
</svg>
