<?xml version="1.0" standalone="no"?>
<!DOCTYPE svg PUBLIC "-//W3C//DTD SVG 20010904//EN"
 "http://www.w3.org/TR/2001/REC-SVG-20010904/DTD/svg10.dtd">
<svg version="1.0" xmlns="http://www.w3.org/2000/svg"
 width="594.000000pt" height="843.000000pt" viewBox="0 0 594.000000 843.000000"
 preserveAspectRatio="xMidYMid meet">

<g transform="translate(0.000000,843.000000) scale(0.100000,-0.100000)"
fill="#000000" stroke="none">
<path d="M783 6913 l-613 -3 0 -649 0 -649 69 -64 c77 -72 151 -115 256 -150
62 -20 89 -23 225 -23 146 1 161 2 260 33 115 35 276 96 300 113 11 8 12 12 3
16 -7 2 -51 32 -98 65 -335 239 -453 528 -345 850 30 90 78 186 119 238 l20
25 113 -111 c131 -127 247 -219 370 -293 149 -89 176 -97 359 -115 436 -43
940 -133 1179 -211 312 -101 382 -129 557 -218 307 -156 534 -381 572 -567 5
-28 13 -35 61 -52 53 -20 169 -64 368 -142 50 -20 134 -52 185 -72 50 -20 127
-50 170 -67 l77 -31 0 -88 c0 -93 21 -221 44 -273 37 -83 38 -97 10 -137 -39
-56 -289 -295 -374 -359 -92 -68 -145 -99 -231 -132 -59 -24 -86 -27 -285 -37
-541 -26 -963 -58 -1334 -101 -388 -44 -855 -130 -1115 -204 -225 -64 -286
-82 -400 -121 -242 -83 -559 -226 -729 -329 -103 -63 -248 -163 -325 -224
l-81 -63 0 -1049 0 -1049 590 0 590 0 0 920 0 919 1038 4 c1002 3 1041 4 1157
24 504 89 871 263 1189 564 787 744 892 2077 232 2962 -329 442 -803 722
-1391 821 -220 37 -374 39 -2792 29z"/>
</g>
</svg>
