<?xml version="1.0" standalone="no"?>
<!DOCTYPE svg PUBLIC "-//W3C//DTD SVG 20010904//EN"
 "http://www.w3.org/TR/2001/REC-SVG-20010904/DTD/svg10.dtd">
<svg version="1.0" xmlns="http://www.w3.org/2000/svg"
 width="1563.000000pt" height="682.000000pt" viewBox="0 0 1563.000000 682.000000"
 preserveAspectRatio="xMidYMid meet">

<g transform="translate(0.000000,682.000000) scale(0.100000,-0.100000)"
fill="#000000" stroke="none">
<path d="M3530 6274 c-907 -127 -1557 -749 -1650 -1579 -38 -340 24 -725 168
-1035 250 -542 751 -899 1300 -927 l122 -6 0 25 c0 25 -2 25 -99 31 -243 16
-420 75 -620 207 -442 290 -691 877 -650 1533 46 744 447 1339 1074 1595 349
142 811 161 1150 47 200 -67 381 -180 536 -334 305 -306 446 -717 410 -1198
-12 -159 -27 -257 -57 -369 l-16 -61 -122 -6 c-145 -7 -211 -24 -334 -83 -164
-79 -278 -217 -322 -389 -11 -43 -20 -102 -20 -130 0 -65 3 -64 -183 -72
l-138 -6 3 744 c3 740 3 744 25 802 31 80 57 113 116 147 l52 30 -375 -1
c-374 0 -375 0 -339 -19 54 -28 106 -92 124 -152 34 -112 36 -205 32 -1343 -3
-1050 -4 -1134 -21 -1190 -33 -111 -74 -165 -146 -194 -17 -7 92 -10 345 -10
367 0 370 0 335 19 -55 29 -89 72 -118 146 l-27 69 -3 453 -3 452 69 0 c38 0
109 3 158 6 l89 6 17 -87 c48 -253 253 -509 744 -930 77 -66 201 -180 278
-255 406 -397 555 -697 532 -1070 -19 -292 -110 -521 -274 -687 -167 -168
-359 -250 -638 -273 -319 -25 -600 51 -820 224 -372 290 -489 885 -265 1351
156 325 456 543 799 581 34 3 62 11 62 15 0 14 -167 10 -270 -6 -407 -66 -684
-245 -831 -537 -148 -293 -141 -712 17 -1021 198 -389 587 -633 1083 -678 493
-45 949 140 1210 491 109 146 191 342 227 540 24 131 25 399 1 492 -54 217
-182 427 -397 651 -119 125 -259 247 -470 412 -343 267 -519 425 -644 575 -82
99 -102 128 -131 193 l-24 54 92 23 c305 74 584 253 715 457 15 24 30 43 34
43 14 0 131 -115 174 -171 61 -80 117 -188 153 -293 23 -69 31 -84 35 -65 5
23 36 546 36 602 l0 28 -22 -20 c-47 -45 -118 -50 -271 -19 -47 9 -57 14 -53
27 2 9 21 59 42 111 89 230 116 556 68 827 -44 253 -177 502 -374 702 -248
251 -582 416 -998 492 -155 29 -542 36 -702 13z m1629 -2166 c-79 -202 -228
-366 -421 -462 -143 -72 -154 -72 -162 -3 -4 28 -2 86 4 127 21 148 96 254
230 324 88 47 163 64 277 65 l93 1 -21 -52z"/>
<path d="M7080 3230 c0 -1913 2 -2160 15 -2160 13 0 15 247 15 2160 0 1913 -2
2160 -15 2160 -13 0 -15 -247 -15 -2160z"/>
<path d="M9905 4927 c-44 -15 -108 -31 -142 -34 -83 -8 -85 -29 -4 -35 33 -2
66 -10 75 -17 14 -12 16 -84 16 -686 0 -661 0 -672 -20 -690 -13 -11 -41 -20
-75 -23 -30 -2 -55 -8 -55 -13 0 -5 101 -9 225 -9 143 0 225 4 225 10 0 6 -20
10 -44 10 -34 0 -92 13 -108 23 -2 1 -5 337 -8 747 l-5 745 -80 -28z"/>
<path d="M10430 4950 c-26 -17 -143 -50 -204 -58 -73 -9 -89 -32 -22 -32 49 0
96 -14 108 -33 9 -14 11 -1311 2 -1344 -7 -25 -55 -43 -116 -43 -21 0 -38 -4
-38 -10 0 -6 82 -10 225 -10 215 0 294 11 164 23 -90 8 -93 14 -97 160 l-4
122 81 88 81 87 145 -193 c139 -186 165 -233 136 -251 -5 -4 -37 -9 -70 -12
-152 -16 -27 -24 384 -24 245 0 445 4 445 9 0 4 -28 11 -61 14 -101 9 -94 -28
-97 491 l-3 453 -57 -23 c-31 -12 -86 -28 -122 -34 -36 -7 -75 -14 -87 -16
-44 -8 -22 -21 44 -27 48 -4 70 -10 80 -23 10 -14 13 -100 13 -395 0 -437 4
-416 -91 -426 -83 -8 -149 11 -192 55 -37 39 -375 475 -379 490 -5 16 281 319
316 336 19 9 48 16 65 16 17 0 31 5 31 10 0 6 -68 10 -185 10 -102 0 -185 -4
-185 -9 0 -5 22 -11 50 -13 99 -10 103 -41 20 -158 -59 -84 -338 -408 -352
-409 -5 -1 -9 267 -10 594 -3 525 -5 593 -18 585z"/>
<path d="M7860 4850 c-41 -4 -157 -8 -257 -9 -155 -1 -183 -3 -183 -16 0 -12
14 -15 70 -15 62 0 74 -3 95 -25 l25 -24 0 -634 c0 -498 -3 -637 -13 -651 -14
-20 -73 -35 -134 -36 -24 0 -43 -4 -43 -10 0 -6 100 -10 280 -10 154 0 280 4
280 9 0 4 -33 11 -72 14 -40 3 -80 8 -89 12 -34 13 -39 51 -39 307 l0 250 23
-7 c12 -4 83 -9 158 -12 107 -4 153 -2 211 11 170 38 299 132 361 263 30 63
32 76 32 173 0 97 -2 110 -31 171 -53 110 -150 186 -290 223 -69 19 -274 28
-384 16z m331 -52 c111 -51 171 -139 191 -278 15 -99 -1 -228 -36 -306 -46
-100 -143 -173 -262 -195 -56 -11 -213 -7 -277 7 l-27 6 2 377 3 376 65 23
c55 19 82 22 175 19 94 -2 118 -6 166 -29z"/>
<path d="M11950 4748 c0 -71 -27 -175 -61 -239 -51 -95 -127 -149 -211 -149
-16 0 -28 -4 -28 -10 0 -6 38 -10 94 -10 l95 0 3 -372 3 -373 27 -57 c45 -96
136 -144 260 -136 78 5 148 38 195 93 35 40 73 105 73 125 0 22 -21 8 -39 -27
-24 -47 -97 -118 -134 -132 -16 -6 -52 -11 -81 -11 -67 0 -113 28 -143 90 -23
44 -23 50 -23 422 l0 378 166 0 c152 0 165 1 162 18 -2 11 -12 16 -28 15 -14
-1 -87 -5 -162 -9 l-138 -7 0 216 c0 186 -2 217 -15 217 -11 0 -15 -11 -15
-42z"/>
<path d="M11385 4756 c-91 -40 -60 -186 40 -186 51 0 95 44 95 95 0 49 -15 74
-55 91 -41 17 -42 17 -80 0z"/>
<path d="M8890 4372 c-56 -23 -162 -52 -192 -52 -31 0 -58 -9 -58 -20 0 -4 27
-10 60 -13 34 -3 67 -11 75 -17 13 -10 15 -61 15 -309 0 -320 8 -393 50 -454
90 -132 301 -144 484 -27 l61 39 3 -49 3 -50 145 0 c89 0 144 4 144 10 0 6
-18 10 -39 10 -45 0 -92 15 -103 33 -4 7 -8 213 -8 460 0 491 4 460 -62 432
-36 -15 -136 -40 -200 -50 -49 -8 -49 -25 0 -25 47 0 103 -16 114 -32 4 -7 8
-169 8 -360 l0 -347 -29 -21 c-17 -11 -59 -34 -96 -51 -59 -28 -73 -31 -145
-28 -92 5 -121 21 -160 90 l-25 44 -5 401 -5 400 -35 -14z"/>
<path d="M11260 3170 c-26 -17 -143 -50 -204 -58 -80 -10 -84 -28 -6 -34 104
-7 95 58 95 -708 0 -766 9 -701 -95 -708 -33 -2 -60 -8 -60 -13 0 -5 101 -9
225 -9 124 0 225 4 225 9 0 5 -30 11 -66 13 -50 3 -70 9 -80 23 -11 15 -14 92
-14 402 l0 384 80 38 c174 85 308 58 367 -74 16 -35 18 -79 21 -381 4 -401 8
-384 -97 -392 -33 -2 -61 -8 -61 -13 0 -5 101 -9 225 -9 124 0 225 4 225 9 0
5 -27 11 -60 13 -100 7 -94 -16 -100 396 l-5 357 -27 52 c-50 93 -123 132
-253 132 -98 1 -165 -16 -250 -63 l-65 -35 -2 339 c-3 299 -5 338 -18 330z"/>
<path d="M7785 3080 c-132 -18 -241 -84 -285 -171 -43 -84 -43 -218 0 -303 25
-48 95 -123 160 -171 25 -18 113 -71 196 -117 83 -47 179 -106 213 -132 105
-81 171 -189 171 -281 0 -111 -76 -215 -181 -248 -80 -26 -213 -24 -294 3
-162 54 -324 217 -325 328 0 21 -5 32 -14 32 -10 0 -13 -10 -10 -37 7 -62 24
-292 24 -319 0 -15 6 -24 16 -24 12 0 15 7 12 30 -3 17 -1 33 3 36 4 2 36 -7
71 -21 94 -39 211 -64 323 -71 227 -14 400 67 476 221 58 119 50 246 -22 355
-64 95 -148 156 -422 306 -132 72 -225 153 -263 229 -23 48 -26 64 -23 133 3
67 8 84 31 114 15 20 49 47 75 59 43 22 62 24 178 24 120 0 134 -2 187 -27
112 -52 194 -156 207 -262 3 -28 12 -51 20 -54 11 -4 12 9 7 64 -3 38 -8 115
-12 172 -3 56 -10 102 -15 102 -5 0 -9 -14 -9 -31 0 -21 -4 -29 -12 -26 -76
33 -144 59 -192 71 -74 20 -214 27 -291 16z"/>
<path d="M8625 2955 c-24 -23 -29 -38 -26 -80 7 -81 103 -114 162 -56 38 39
39 87 3 130 -22 26 -33 31 -70 31 -34 0 -51 -6 -69 -25z"/>
<path d="M10873 2763 c-36 -7 -108 -79 -139 -138 -16 -30 -33 -55 -39 -55 -5
0 -32 7 -59 15 -67 21 -239 20 -323 -2 -94 -23 -178 -83 -217 -153 -27 -49
-31 -64 -31 -135 0 -61 6 -91 22 -127 28 -61 95 -126 162 -157 l52 -25 -50
-18 c-128 -48 -148 -181 -38 -255 l48 -32 -43 -12 c-146 -39 -242 -149 -224
-257 20 -128 145 -201 377 -222 254 -22 485 35 556 136 45 64 56 158 27 220
-45 94 -151 144 -418 196 -210 42 -271 64 -293 107 -9 19 -9 31 1 55 17 42 58
55 181 56 249 2 407 73 468 210 29 63 28 180 -1 236 -23 44 -84 104 -131 129
-17 8 -31 19 -31 23 0 15 66 106 84 116 14 9 20 8 24 -4 11 -30 61 -70 87 -70
37 0 75 41 75 82 -1 40 -17 64 -54 78 -28 10 -34 11 -73 3z m-285 -198 c29 -9
67 -29 86 -45 66 -58 100 -191 77 -301 -32 -153 -121 -229 -269 -229 -82 0
-123 14 -174 59 -76 67 -108 218 -73 349 15 54 27 75 66 114 26 26 62 51 80
57 52 14 150 13 207 -4z m-117 -925 c203 -36 254 -52 308 -90 81 -59 100 -125
60 -208 -43 -88 -162 -132 -356 -132 -227 0 -352 62 -382 188 -26 107 41 211
167 257 20 7 38 14 38 14 1 1 75 -12 165 -29z"/>
<path d="M8705 2585 c-31 -14 -131 -39 -197 -50 -57 -9 -46 -22 23 -28 100 -9
94 19 94 -422 0 -443 6 -416 -95 -423 -33 -2 -60 -8 -60 -13 0 -5 101 -9 225
-9 124 0 225 4 225 9 0 5 -28 11 -61 13 -105 8 -99 -24 -99 494 0 349 -3 444
-12 443 -7 0 -26 -7 -43 -14z"/>
<path d="M9150 2578 c-38 -17 -166 -47 -207 -48 -7 0 -13 -4 -13 -10 0 -5 17
-10 38 -10 47 0 103 -16 114 -32 10 -16 10 -769 0 -784 -14 -22 -51 -34 -101
-34 -28 0 -51 -4 -51 -10 0 -6 82 -10 225 -10 124 0 225 4 225 9 0 5 -27 11
-59 13 -98 7 -91 -25 -91 423 l0 392 68 31 c93 43 152 56 216 48 72 -9 115
-39 146 -101 l25 -50 3 -350 c2 -288 0 -354 -11 -369 -11 -15 -30 -21 -76 -24
-33 -2 -61 -8 -61 -13 0 -5 101 -9 225 -9 143 0 225 4 225 10 0 6 -20 10 -44
10 -60 0 -105 18 -111 43 -2 12 -6 173 -7 357 -3 325 -4 337 -26 385 -50 109
-128 155 -263 155 -101 0 -189 -23 -261 -69 l-48 -31 0 50 c0 58 -8 61 -80 28z"/>
</g>
</svg>
