<?xml version="1.0" standalone="no"?>
<!DOCTYPE svg PUBLIC "-//W3C//DTD SVG 20010904//EN"
 "http://www.w3.org/TR/2001/REC-SVG-20010904/DTD/svg10.dtd">
<svg version="1.0" xmlns="http://www.w3.org/2000/svg"
 width="251.000000pt" height="201.000000pt" viewBox="0 0 251.000000 201.000000"
 preserveAspectRatio="xMidYMid meet">

<g transform="translate(0.000000,201.000000) scale(0.100000,-0.100000)"
fill="#000000" stroke="none">
<path d="M1205 1440 c-22 -11 -56 -34 -75 -51 l-35 -30 55 5 c37 3 47 2 30 -4
-14 -4 -41 -9 -60 -10 -55 -2 -7 -18 60 -19 30 -1 82 -8 115 -16 102 -25 105
-24 105 39 0 48 -3 57 -31 80 -39 33 -106 35 -164 6z"/>
<path d="M1053 1317 c-18 -5 -33 -15 -33 -22 0 -7 -9 -15 -20 -18 -22 -6 -36
-48 -25 -74 7 -15 9 -15 12 -3 2 8 16 21 30 28 25 11 30 9 58 -18 55 -53 81
-21 51 64 -16 47 -31 56 -73 43z"/>
<path d="M1147 1293 c-3 -16 -2 -32 3 -38 4 -5 11 -25 15 -43 6 -30 10 -33 38
-32 43 2 78 -10 70 -24 -3 -6 13 9 36 34 l42 45 -42 -57 c-23 -32 -46 -55 -51
-52 -6 4 -5 -4 2 -16 12 -22 13 -22 41 21 15 24 38 55 50 69 l21 25 -16 -25
c-52 -83 -76 -131 -76 -156 0 -22 3 -25 12 -16 26 26 28 10 3 -20 -27 -31 -29
-54 -10 -103 4 -11 -2 -6 -12 10 -11 17 -41 52 -68 79 -49 51 -105 136 -105
161 0 15 -47 75 -59 75 -4 0 -17 -9 -29 -20 -26 -25 -29 -75 -6 -101 15 -17
18 -17 43 -2 l26 17 -22 -25 c-19 -21 -21 -27 -9 -39 7 -8 24 -42 37 -74 13
-33 44 -81 67 -108 l44 -48 -40 0 c-42 0 -52 11 -52 55 0 12 -9 42 -20 66
l-19 44 6 -82 6 -83 -57 0 c-65 0 -66 -9 5 107 28 45 36 68 31 83 -6 17 -18 3
-72 -85 l-65 -104 -130 -4 c-71 -1 142 -3 475 -3 333 0 553 2 489 3 l-116 4
-6 77 c-12 161 -44 227 -155 327 -40 36 -62 48 -104 55 -29 5 -71 14 -93 20
-22 5 -59 10 -81 10 -38 0 -42 -3 -47 -27z m293 -384 c0 -17 -69 -79 -87 -79
-9 0 3 14 26 30 23 17 44 37 48 45 6 18 13 19 13 4z"/>
<path d="M887 1239 c-8 -29 9 -69 29 -69 11 0 14 5 10 16 -3 9 -6 29 -6 45 0
34 -25 40 -33 8z"/>
<path d="M937 1253 c-9 -8 -9 -46 -1 -67 12 -31 24 -16 24 29 0 42 -7 54 -23
38z"/>
<path d="M1110 1160 c0 -5 5 -10 10 -10 6 0 10 5 10 10 0 6 -4 10 -10 10 -5 0
-10 -4 -10 -10z"/>
<path d="M1149 1165 c-1 -3 -2 -11 -3 -17 -1 -7 -7 -12 -14 -10 -15 3 -15 -1
-1 -32 7 -14 17 -22 25 -19 7 2 21 0 31 -7 16 -10 16 -10 -4 -5 -40 11 -32
-11 22 -65 l54 -53 6 37 c6 28 3 41 -10 56 -17 19 -18 19 -37 -3 -16 -18 -17
-18 -10 -3 13 27 3 98 -16 114 -16 12 -41 16 -43 7z m35 -14 c4 -5 -3 -7 -14
-4 -23 6 -26 13 -6 13 8 0 17 -4 20 -9z"/>
<path d="M692 770 c-32 -13 -48 -53 -34 -85 16 -34 53 -47 92 -34 43 15 37 30
-11 27 -30 -2 -44 2 -53 15 -19 30 5 52 53 49 46 -3 53 9 16 26 -30 14 -32 14
-63 2z"/>
<path d="M820 761 c0 -6 19 -11 42 -13 59 -4 63 -28 4 -28 -46 0 -46 0 -46
-35 0 -24 5 -35 15 -35 9 0 15 9 15 25 0 15 6 25 15 25 8 0 22 -11 31 -25 9
-14 26 -25 37 -25 20 0 20 1 -3 25 -13 14 -19 25 -12 25 17 0 25 39 12 55 -14
17 -110 21 -110 6z"/>
<path d="M990 710 l0 -60 55 0 c30 0 55 5 55 10 0 6 -18 10 -40 10 -29 0 -40
4 -40 15 0 10 11 15 35 15 19 0 35 5 35 10 0 6 -16 10 -35 10 -24 0 -35 5 -35
15 0 11 11 15 40 15 22 0 40 5 40 10 0 6 -25 10 -55 10 l-55 0 0 -60z"/>
<path d="M1168 710 c-19 -44 -23 -60 -13 -60 8 0 17 5 20 10 3 6 22 10 41 10
19 0 34 -4 34 -10 0 -5 7 -10 16 -10 18 0 13 22 -17 83 -28 54 -49 48 -81 -23z
m56 -18 c-25 -6 -32 2 -22 28 l9 25 14 -25 c12 -21 12 -25 -1 -28z"/>
<path d="M1300 760 c0 -5 14 -10 30 -10 29 0 30 -1 30 -50 0 -27 5 -50 10 -50
6 0 10 23 10 50 0 49 1 50 30 50 17 0 30 5 30 10 0 6 -30 10 -70 10 -40 0 -70
-4 -70 -10z"/>
<path d="M1480 710 c0 -47 3 -60 15 -60 12 0 15 13 15 60 0 47 -3 60 -15 60
-12 0 -15 -13 -15 -60z"/>
<path d="M1577 710 c35 -79 55 -80 89 -5 28 65 28 65 10 65 -7 0 -23 -21 -34
-47 l-20 -48 -20 48 c-12 26 -28 47 -36 47 -11 0 -9 -13 11 -60z"/>
<path d="M1740 710 l0 -60 55 0 c30 0 55 5 55 10 0 6 -18 10 -40 10 -29 0 -40
4 -40 15 0 10 11 15 35 15 19 0 35 5 35 10 0 6 -16 10 -35 10 -24 0 -35 5 -35
15 0 11 11 15 40 15 22 0 40 5 40 10 0 6 -25 10 -55 10 l-55 0 0 -60z"/>
<path d="M910 570 c0 -18 3 -19 20 -10 22 12 18 30 -6 30 -8 0 -14 -9 -14 -20z"/>
<path d="M970 575 c0 -14 6 -21 20 -21 14 0 20 7 20 21 0 17 -2 17 -10 5 -9
-13 -11 -13 -20 0 -8 12 -10 12 -10 -5z"/>
<path d="M1037 576 c-4 -9 -2 -18 4 -21 5 -4 8 -1 7 6 -2 6 3 14 11 17 10 3
12 0 8 -12 -4 -9 -2 -16 4 -16 17 0 5 34 -12 38 -9 2 -19 -4 -22 -12z"/>
<path d="M1106 582 c6 -4 13 -14 16 -22 3 -10 6 -8 10 8 5 18 2 22 -15 22 -13
0 -17 -3 -11 -8z"/>
<path d="M1167 583 c-10 -10 -8 -33 3 -33 5 0 7 7 4 15 -4 10 0 15 11 15 12 0
15 -5 10 -17 -5 -14 -3 -15 6 -6 6 6 8 16 5 22 -8 12 -29 15 -39 4z"/>
<path d="M1237 583 c-10 -10 -8 -33 3 -33 5 0 7 6 4 14 -3 8 2 16 13 19 14 4
14 5 2 6 -9 0 -19 -2 -22 -6z"/>
<path d="M1297 583 c-14 -13 -7 -29 13 -29 13 0 20 7 20 18 0 18 -20 24 -33
11z"/>
<path d="M1371 571 c-10 -18 -9 -21 9 -21 22 0 25 7 11 29 -7 11 -11 9 -20 -8z"/>
<path d="M1430 570 c0 -14 5 -18 16 -13 11 4 12 8 4 13 -9 6 -9 9 1 13 10 4 9
6 -3 6 -12 1 -18 -6 -18 -19z"/>
<path d="M1490 575 c0 -14 6 -21 20 -21 14 0 20 7 20 21 0 17 -2 17 -10 5 -9
-13 -11 -13 -20 0 -8 12 -10 12 -10 -5z"/>
<path d="M1561 585 c0 -5 3 -15 7 -22 5 -9 12 -6 21 10 13 20 13 21 -1 9 -13
-10 -17 -10 -21 0 -3 7 -6 9 -6 3z"/>
<path d="M713 573 c32 -2 81 -2 110 0 29 2 3 3 -58 3 -60 0 -84 -1 -52 -3z"/>
<path d="M1693 573 c31 -2 83 -2 115 0 31 2 5 3 -58 3 -63 0 -89 -1 -57 -3z"/>
</g>
</svg>
