<?xml version="1.0" standalone="no"?>
<!DOCTYPE svg PUBLIC "-//W3C//DTD SVG 20010904//EN"
 "http://www.w3.org/TR/2001/REC-SVG-20010904/DTD/svg10.dtd">
<svg version="1.0" xmlns="http://www.w3.org/2000/svg"
 width="216.000000pt" height="233.000000pt" viewBox="0 0 216.000000 233.000000"
 preserveAspectRatio="xMidYMid meet">

<g transform="translate(0.000000,233.000000) scale(0.100000,-0.100000)"
fill="#000000" stroke="none">
<path d="M1008 1998 c5 -168 8 -185 10 -45 1 75 -1 137 -5 137 -5 0 -7 -42 -5
-92z"/>
<path d="M1105 2069 c-4 -6 -5 -12 -2 -15 2 -3 7 2 10 11 7 17 1 20 -8 4z"/>
<path d="M1191 1997 c-13 -21 -12 -21 5 -5 10 10 16 20 13 22 -3 3 -11 -5 -18
-17z"/>
<path d="M1368 2013 c10 -4 10 -8 1 -19 -8 -10 -2 -9 22 3 47 22 47 23 3 22
-21 0 -33 -3 -26 -6z"/>
<path d="M698 1954 c-1 -31 0 -61 4 -67 4 -7 8 18 8 56 0 81 -7 88 -12 11z"/>
<path d="M778 1940 c-3 -77 -1 -100 13 -100 6 0 5 8 -1 20 -9 17 -7 22 12 30
17 6 19 9 6 9 -14 1 -18 10 -18 45 0 26 5 46 12 48 8 3 6 7 -4 11 -14 5 -17
-4 -20 -63z"/>
<path d="M1102 1990 c0 -14 2 -19 5 -12 2 6 2 18 0 25 -3 6 -5 1 -5 -13z"/>
<path d="M1450 2006 c0 -2 7 -7 16 -10 8 -3 12 -2 9 4 -6 10 -25 14 -25 6z"/>
<path d="M1282 1967 c-18 -18 -32 -36 -32 -40 0 -7 19 11 54 51 29 34 14 26
-22 -11z"/>
<path d="M1420 1986 c0 -2 8 -10 18 -17 15 -13 16 -12 3 4 -13 16 -21 21 -21
13z"/>
<path d="M1498 1978 c7 -7 8 -16 3 -22 -6 -7 -1 -11 14 -11 l24 0 -21 23 c-12
12 -24 22 -27 22 -3 0 0 -5 7 -12z"/>
<path d="M1148 1973 c7 -3 16 -2 19 1 4 3 -2 6 -13 5 -11 0 -14 -3 -6 -6z"/>
<path d="M1330 1940 c-8 -6 -11 -10 -6 -10 5 0 3 -8 -5 -17 -7 -10 -2 -8 11 4
25 24 25 39 0 23z"/>
<path d="M1450 1944 c0 -3 9 -17 20 -31 11 -14 20 -21 20 -15 0 6 -5 14 -10
17 -6 4 -8 10 -5 15 3 4 -2 10 -10 14 -8 3 -15 3 -15 0z"/>
<path d="M558 1903 c6 -2 18 -2 25 0 6 3 1 5 -13 5 -14 0 -19 -2 -12 -5z"/>
<path d="M525 1889 c-4 -6 -5 -12 -2 -15 2 -3 7 2 10 11 7 17 1 20 -8 4z"/>
<path d="M1144 1868 c1 -18 -4 -23 -22 -22 -15 0 -19 -3 -13 -9 12 -12 40 -2
48 18 3 9 1 21 -4 26 -6 6 -9 2 -9 -13z"/>
<path d="M1231 1855 c0 -16 3 -25 7 -18 4 6 21 13 37 16 l30 4 -32 2 c-17 0
-34 7 -36 14 -3 6 -6 -1 -6 -18z"/>
<path d="M1331 1864 c0 -11 3 -14 6 -6 3 7 2 16 -1 19 -3 4 -6 -2 -5 -13z"/>
<path d="M1491 1855 c0 -16 3 -25 7 -18 4 6 21 13 37 16 l30 4 -32 2 c-17 0
-34 7 -36 14 -3 6 -6 -1 -6 -18z"/>
<path d="M1413 1864 c4 -4 1 -14 -6 -23 -11 -14 -10 -15 8 -1 11 8 21 15 23
16 2 1 -5 5 -15 8 -9 4 -14 4 -10 0z"/>
<path d="M601 1827 c-13 -21 -12 -21 5 -5 10 10 16 20 13 22 -3 3 -11 -5 -18
-17z"/>
<path d="M1601 1824 c0 -11 3 -14 6 -6 3 7 2 16 -1 19 -3 4 -6 -2 -5 -13z"/>
<path d="M1467 1793 c-11 -13 -17 -26 -14 -29 2 -3 12 7 21 22 23 33 17 39 -7
7z"/>
<path d="M1240 1804 c0 -6 7 -19 16 -30 14 -18 14 -18 3 6 -14 31 -19 36 -19
24z"/>
<path d="M1650 1794 c-17 -9 -20 -14 -9 -14 9 0 22 7 29 15 15 18 13 18 -20
-1z"/>
<path d="M886 1777 c3 -10 9 -15 12 -12 3 3 0 11 -7 18 -10 9 -11 8 -5 -6z"/>
<path d="M1337 1760 c18 -21 28 -27 18 -10 -3 6 0 10 7 10 9 0 9 3 -2 10 -27
18 -41 12 -23 -10z"/>
<path d="M480 1766 c0 -2 8 -10 18 -17 15 -13 16 -12 3 4 -13 16 -21 21 -21
13z"/>
<path d="M1050 1762 c0 -4 10 -9 22 -9 18 -2 20 0 8 7 -18 12 -30 13 -30 2z"/>
<path d="M1285 1757 c-15 -12 -16 -15 -4 -22 8 -5 11 -5 7 0 -4 4 0 14 10 21
23 18 11 18 -13 1z"/>
<path d="M1493 1759 c18 -10 18 -12 0 -32 -10 -12 -3 -9 15 7 31 29 46 50 18
27 -10 -8 -16 -9 -21 -1 -3 5 -12 10 -18 10 -7 0 -4 -5 6 -11z"/>
<path d="M857 1749 c7 -7 15 -10 18 -7 3 3 -2 9 -12 12 -14 6 -15 5 -6 -5z"/>
<path d="M468 1723 c4 -23 2 -25 -18 -20 -13 3 -19 2 -14 -2 5 -5 20 -11 34
-15 14 -3 20 -3 14 -1 -6 3 -8 19 -6 35 2 17 0 30 -5 30 -6 0 -8 -12 -5 -27z"/>
<path d="M1040 1725 c-10 -12 -9 -15 5 -15 10 0 24 -8 31 -17 7 -10 14 -13 14
-6 0 6 -9 18 -20 26 -11 8 -17 17 -13 20 3 4 4 7 1 7 -3 0 -11 -7 -18 -15z"/>
<path d="M1104 1731 c4 -5 0 -12 -6 -14 -7 -3 -2 -6 11 -6 20 -1 21 1 11 14
-14 16 -25 21 -16 6z"/>
<path d="M1602 1717 l-22 -23 23 0 c17 0 23 6 23 23 0 13 -1 23 -1 23 -1 0
-11 -10 -23 -23z"/>
<path d="M1673 1733 c9 -2 25 -2 35 0 9 3 1 5 -18 5 -19 0 -27 -2 -17 -5z"/>
<path d="M1754 1725 c3 -19 13 -28 32 -31 12 -2 10 4 -7 22 -26 28 -28 29 -25
9z"/>
<path d="M511 1713 c0 -12 -4 -30 -7 -40 -5 -17 -5 -17 6 0 6 10 9 28 7 40 -4
22 -4 22 -6 0z"/>
<path d="M1368 1718 c10 -13 10 -17 0 -21 -7 -3 7 -5 32 -5 44 0 44 0 15 10
-16 6 -37 16 -45 22 -13 9 -13 9 -2 -6z"/>
<path d="M614 1705 c-11 -27 25 -50 40 -26 4 5 -4 7 -16 3 -18 -4 -20 -2 -16
16 7 25 0 30 -8 7z"/>
<path d="M950 1716 c0 -2 8 -10 18 -17 15 -13 16 -12 3 4 -13 16 -21 21 -21
13z"/>
<path d="M1189 1703 c-13 -17 -13 -17 6 -3 11 8 22 16 24 17 2 2 0 3 -6 3 -6
0 -17 -8 -24 -17z"/>
<path d="M1155 1700 c3 -5 8 -10 11 -10 2 0 4 5 4 10 0 6 -5 10 -11 10 -5 0
-7 -4 -4 -10z"/>
<path d="M1678 1693 c6 -2 18 -2 25 0 6 3 1 5 -13 5 -14 0 -19 -2 -12 -5z"/>
<path d="M933 1682 c-8 -5 -4 -15 14 -32 l26 -25 -14 25 c-7 14 -12 28 -11 33
3 9 0 9 -15 -1z"/>
<path d="M1639 1673 c-13 -16 -12 -17 4 -4 16 13 21 21 13 21 -2 0 -10 -8 -17
-17z"/>
<path d="M1720 1686 c0 -2 8 -10 18 -17 15 -13 16 -12 3 4 -13 16 -21 21 -21
13z"/>
<path d="M390 1676 c0 -2 8 -10 18 -17 15 -13 16 -12 3 4 -13 16 -21 21 -21
13z"/>
<path d="M758 1673 c6 -2 18 -2 25 0 6 3 1 5 -13 5 -14 0 -19 -2 -12 -5z"/>
<path d="M1222 1673 c-17 -7 -36 -43 -22 -43 5 0 10 5 10 11 0 7 8 18 18 25
18 14 16 16 -6 7z"/>
<path d="M1796 1664 c-8 -21 -7 -56 2 -71 4 -6 7 11 7 38 0 27 -1 49 -1 49 -1
0 -5 -7 -8 -16z"/>
<path d="M709 1653 c-13 -17 -13 -17 6 -3 11 8 22 16 24 17 2 2 0 3 -6 3 -6 0
-17 -8 -24 -17z"/>
<path d="M1155 1660 c-4 -6 3 -10 14 -10 25 0 27 6 6 13 -8 4 -17 2 -20 -3z"/>
<path d="M1662 1628 l1 -43 4 38 c4 34 6 36 26 26 21 -10 21 -10 3 5 -30 24
-36 20 -34 -26z"/>
<path d="M455 1650 l-30 -8 27 -1 c15 0 30 4 33 9 3 6 5 9 3 9 -2 -1 -16 -5
-33 -9z"/>
<path d="M978 1653 c6 -2 18 -2 25 0 6 3 1 5 -13 5 -14 0 -19 -2 -12 -5z"/>
<path d="M1040 1652 c0 -4 18 -6 40 -4 22 2 40 6 40 8 0 2 -18 4 -40 4 -22 0
-40 -3 -40 -8z"/>
<path d="M1582 1630 c0 -14 2 -19 5 -12 2 6 2 18 0 25 -3 6 -5 1 -5 -13z"/>
<path d="M1621 1634 c0 -11 3 -14 6 -6 3 7 2 16 -1 19 -3 4 -6 -2 -5 -13z"/>
<path d="M1752 1630 c0 -14 2 -19 5 -12 2 6 2 18 0 25 -3 6 -5 1 -5 -13z"/>
<path d="M400 1624 c0 -8 5 -12 10 -9 6 3 10 10 10 16 0 5 -4 9 -10 9 -5 0
-10 -7 -10 -16z"/>
<path d="M487 1633 c-4 -3 -7 -11 -7 -17 0 -6 5 -5 12 2 6 6 9 14 7 17 -3 3
-9 2 -12 -2z"/>
<path d="M839 1602 c5 -34 6 -35 9 -8 2 16 0 32 -5 37 -5 5 -7 -7 -4 -29z"/>
<path d="M1709 1623 c-13 -16 -12 -17 4 -4 16 13 21 21 13 21 -2 0 -10 -8 -17
-17z"/>
<path d="M730 1615 c-10 -12 -8 -21 9 -47 11 -18 21 -29 21 -25 0 4 -7 19 -16
33 -19 28 -12 40 26 47 l25 4 -26 2 c-15 0 -32 -6 -39 -14z"/>
<path d="M804 1600 c0 -13 4 -16 10 -10 7 7 7 13 0 20 -6 6 -10 3 -10 -10z"/>
<path d="M956 1584 c-4 -9 -4 -19 -1 -22 3 -3 5 0 5 7 0 7 4 9 10 6 6 -3 7 1
4 9 -8 20 -10 20 -18 0z"/>
<path d="M1189 1583 c-8 -9 -9 -14 -2 -10 6 4 14 1 16 -5 3 -7 6 -3 6 10 1 26
-2 27 -20 5z"/>
<path d="M1339 1583 c-13 -15 -12 -15 9 -2 18 11 26 12 43 1 16 -10 24 -11 33
-2 8 8 7 10 -5 5 -10 -4 -20 -2 -24 4 -10 16 -41 13 -56 -6z"/>
<path d="M1450 1593 c8 -3 22 -11 30 -17 13 -10 13 -9 1 7 -7 9 -21 17 -30 16
-13 0 -14 -1 -1 -6z"/>
<path d="M1587 1587 c-3 -8 1 -14 8 -14 7 0 11 6 8 14 -3 7 -6 13 -8 13 -2 0
-5 -6 -8 -13z"/>
<path d="M1642 1584 c10 -10 20 -16 22 -13 3 3 -5 11 -17 18 -21 13 -21 12 -5
-5z"/>
<path d="M1729 1583 c-13 -16 -12 -17 4 -4 9 7 17 15 17 17 0 8 -8 3 -21 -13z"/>
<path d="M515 1570 c-3 -6 1 -7 9 -4 18 7 21 14 7 14 -6 0 -13 -4 -16 -10z"/>
<path d="M560 1576 c0 -2 7 -7 16 -10 8 -3 12 -2 9 4 -6 10 -25 14 -25 6z"/>
<path d="M690 1574 c0 -6 7 -19 16 -30 14 -18 14 -18 3 6 -14 31 -19 36 -19
24z"/>
<path d="M996 1564 c-5 -14 -4 -15 9 -4 17 14 19 20 6 20 -5 0 -12 -7 -15 -16z"/>
<path d="M1104 1569 c-3 -6 -15 -9 -25 -6 -11 3 -19 1 -19 -4 0 -15 36 -10 50
6 7 8 10 15 7 15 -3 0 -9 -5 -13 -11z"/>
<path d="M1150 1571 c0 -6 4 -12 8 -15 5 -3 9 1 9 9 0 8 -4 15 -9 15 -4 0 -8
-4 -8 -9z"/>
<path d="M401 1553 c7 -12 15 -20 18 -17 3 2 -3 12 -13 22 -17 16 -18 16 -5
-5z"/>
<path d="M779 1553 c-13 -16 -12 -17 4 -4 9 7 17 15 17 17 0 8 -8 3 -21 -13z"/>
<path d="M1761 1556 c-6 -7 -7 -17 -3 -21 4 -5 -2 -5 -13 -1 -11 4 -17 5 -15
3 3 -2 32 -28 65 -57 55 -49 56 -50 17 -9 -42 45 -43 45 -22 64 11 10 18 21
15 24 -11 10 -34 9 -44 -3z m39 -1 c0 -1 -9 -10 -19 -19 -19 -17 -19 -17 -16
1 2 10 4 18 4 19 2 2 31 1 31 -1z"/>
<path d="M819 1544 c-7 -9 -22 -20 -34 -24 -14 -6 -15 -9 -4 -9 8 -1 26 10 39
24 13 14 21 25 18 25 -3 0 -12 -7 -19 -16z"/>
<path d="M938 1544 c12 -8 19 -20 16 -26 -5 -7 -2 -8 5 -4 9 6 8 13 -5 27 -9
10 -22 19 -28 19 -6 0 0 -7 12 -16z"/>
<path d="M1215 1550 c-3 -5 -2 -10 4 -10 5 0 13 5 16 10 3 6 2 10 -4 10 -5 0
-13 -4 -16 -10z"/>
<path d="M1590 1555 c0 -2 6 -8 13 -14 10 -8 14 -7 14 2 0 8 -6 14 -14 14 -7
0 -13 -1 -13 -2z"/>
<path d="M1633 1535 c0 -7 6 -11 14 -8 7 3 13 6 13 8 0 2 -6 5 -13 8 -8 3 -14
-1 -14 -8z"/>
<path d="M511 1524 c0 -11 3 -14 6 -6 3 7 2 16 -1 19 -3 4 -6 -2 -5 -13z"/>
<path d="M577 1521 c-4 -17 -3 -21 5 -13 5 5 8 16 6 23 -3 8 -7 3 -11 -10z"/>
<path d="M1471 1517 c-13 -21 -12 -21 5 -5 10 10 16 20 13 22 -3 3 -11 -5 -18
-17z"/>
<path d="M482 1510 c0 -14 2 -19 5 -12 2 6 2 18 0 25 -3 6 -5 1 -5 -13z"/>
<path d="M603 1493 c-10 -34 -10 -36 3 -19 12 17 20 56 11 56 -1 0 -7 -17 -14
-37z"/>
<path d="M731 1503 c-1 -17 5 -35 11 -39 20 -12 47 -12 52 1 2 7 -6 10 -27 7
-23 -4 -29 -1 -25 9 3 8 2 23 -3 34 -6 16 -8 14 -8 -12z"/>
<path d="M1190 1526 c0 -2 8 -10 18 -17 15 -13 16 -12 3 4 -13 16 -21 21 -21
13z"/>
<path d="M1173 1485 c0 -22 2 -30 4 -17 2 12 2 30 0 40 -3 9 -5 -1 -4 -23z"/>
<path d="M1372 1485 c37 -39 38 -39 55 -20 17 18 17 18 0 5 -16 -12 -22 -9
-55 21 l-37 34 37 -40z"/>
<path d="M334 1492 c18 -21 20 -21 38 -6 10 10 18 19 18 22 0 3 -8 -2 -18 -11
-17 -15 -20 -15 -37 1 -19 17 -19 17 -1 -6z"/>
<path d="M290 1493 c0 -5 10 -18 23 -29 l22 -19 -20 25 c-11 14 -21 27 -22 29
-2 2 -3 0 -3 -6z"/>
<path d="M396 1472 l-19 -27 24 22 c12 12 21 24 18 27 -2 2 -13 -8 -23 -22z"/>
<path d="M1535 1490 c-3 -6 1 -7 9 -4 18 7 21 14 7 14 -6 0 -13 -4 -16 -10z"/>
<path d="M1881 1473 c7 -12 15 -20 18 -17 3 2 -3 12 -13 22 -17 16 -18 16 -5
-5z"/>
<path d="M1011 1464 c0 -11 3 -14 6 -6 3 7 2 16 -1 19 -3 4 -6 -2 -5 -13z"/>
<path d="M1141 1464 c0 -11 3 -14 6 -6 3 7 2 16 -1 19 -3 4 -6 -2 -5 -13z"/>
<path d="M254 1429 c-10 -17 23 -46 37 -32 8 8 6 11 -7 10 -12 -1 -19 4 -18
16 2 20 -2 22 -12 6z"/>
<path d="M1702 1428 c-7 -7 -12 -17 -12 -22 0 -6 5 -3 11 7 5 9 16 17 24 17 8
0 19 -8 24 -17 6 -10 11 -13 11 -7 0 13 -21 34 -35 34 -6 0 -16 -5 -23 -12z"/>
<path d="M548 1379 c-25 -14 -22 -34 10 -59 23 -18 24 -20 5 -15 -25 7 -42
-13 -22 -26 36 -22 86 4 75 39 -4 12 -14 22 -21 22 -8 0 -17 5 -20 11 -4 6 0
9 11 7 12 -2 19 3 19 12 0 18 -33 24 -57 9z"/>
<path d="M646 1374 c-32 -31 -11 -104 30 -104 36 0 54 20 54 60 0 29 -5 42
-19 50 -27 14 -47 13 -65 -6z m49 -44 c0 -27 -22 -39 -31 -16 -8 22 3 49 19
43 6 -2 12 -14 12 -27z"/>
<path d="M766 1374 c-9 -8 -16 -31 -16 -49 0 -40 27 -60 67 -50 30 7 25 29 -8
30 -19 0 -24 5 -24 25 0 18 5 25 20 25 25 0 38 17 22 27 -19 12 -44 9 -61 -8z"/>
<path d="M850 1330 c0 -53 2 -60 20 -60 18 0 20 7 20 60 0 53 -2 60 -20 60
-18 0 -20 -7 -20 -60z"/>
<path d="M921 1348 c-7 -24 -15 -51 -17 -60 -4 -12 0 -18 10 -18 8 0 20 8 25
18 10 16 12 16 25 -1 8 -10 21 -17 29 -15 24 5 -12 112 -39 116 -17 2 -23 -6
-33 -40z"/>
<path d="M1020 1330 l0 -60 35 0 c24 0 35 5 35 15 0 8 -9 15 -20 15 -17 0 -20
7 -20 45 0 33 -4 45 -15 45 -12 0 -15 -13 -15 -60z"/>
<path d="M1140 1330 c0 -53 2 -60 20 -60 12 0 20 7 20 18 0 15 2 15 11 2 8
-11 12 -12 16 -2 7 17 24 15 17 -3 -4 -10 0 -15 15 -15 19 0 21 6 21 60 0 53
-2 60 -20 60 -13 0 -22 -9 -26 -25 -3 -14 -10 -25 -14 -25 -4 0 -11 11 -14 25
-4 16 -13 25 -26 25 -18 0 -20 -7 -20 -60z"/>
<path d="M1280 1330 l0 -60 35 0 c24 0 35 5 35 15 0 8 -9 15 -20 15 -11 0 -20
5 -20 10 0 6 9 10 20 10 27 0 25 18 -2 30 l-23 9 23 0 c39 1 27 31 -13 31
l-35 0 0 -60z"/>
<path d="M1370 1330 c0 -59 0 -60 28 -60 42 0 65 22 65 60 0 38 -23 60 -65 60
-28 0 -28 -1 -28 -60z m60 0 c0 -25 -18 -36 -26 -16 -8 21 3 49 16 41 5 -3 10
-15 10 -25z"/>
<path d="M1480 1329 c0 -52 2 -60 18 -57 13 2 18 15 20 61 3 52 1 57 -18 57
-18 0 -20 -6 -20 -61z"/>
<path d="M1545 1338 c-8 -28 -15 -55 -15 -60 0 -14 22 -9 36 10 13 16 15 16
28 0 16 -21 36 -24 36 -5 0 7 -7 34 -16 60 -22 66 -48 64 -69 -5z m40 -8 c3
-5 1 -10 -4 -10 -6 0 -11 5 -11 10 0 6 2 10 4 10 3 0 8 -4 11 -10z"/>
<path d="M338 1373 c12 -2 30 -2 40 0 9 3 -1 5 -23 4 -22 0 -30 -2 -17 -4z"/>
<path d="M1906 1367 c3 -10 9 -15 12 -12 3 3 0 11 -7 18 -10 9 -11 8 -5 -6z"/>
<path d="M269 1343 l-24 -28 30 25 c17 14 32 26 34 28 2 1 0 2 -6 2 -5 0 -20
-12 -34 -27z"/>
<path d="M400 1366 c0 -3 9 -10 20 -16 11 -6 20 -8 20 -6 0 3 -9 10 -20 16
-11 6 -20 8 -20 6z"/>
<path d="M1878 1338 c5 -5 16 -8 23 -6 8 3 3 7 -10 11 -17 4 -21 3 -13 -5z"/>
<path d="M418 1302 c19 -21 27 -20 19 3 -4 8 -13 15 -22 15 -13 0 -12 -3 3
-18z"/>
<path d="M1783 1304 c-3 -9 -13 -14 -24 -11 -22 6 -45 -19 -41 -45 2 -11 -3
-18 -12 -18 -11 0 -16 -9 -15 -27 1 -21 3 -23 6 -8 3 11 12 25 21 31 8 6 13
18 9 26 -7 20 11 38 31 31 8 -4 20 1 26 9 6 9 20 18 31 21 18 4 17 5 -3 6 -12
0 -25 -6 -29 -15z"/>
<path d="M383 1268 c-28 -28 -34 -30 -50 -18 -17 13 -17 13 0 -5 17 -19 18
-19 54 18 21 20 35 37 33 37 -3 0 -20 -14 -37 -32z"/>
<path d="M1883 1283 c11 -13 14 -23 8 -27 -15 -10 -2 -36 18 -36 14 1 14 2 -2
11 -13 8 -15 14 -8 23 8 10 5 18 -12 32 l-22 19 18 -22z"/>
<path d="M462 1265 c0 -16 2 -22 5 -12 2 9 2 23 0 30 -3 6 -5 -1 -5 -18z"/>
<path d="M1798 1263 c7 -3 16 -2 19 1 4 3 -2 6 -13 5 -11 0 -14 -3 -6 -6z"/>
<path d="M1759 1243 c-13 -16 -12 -17 4 -4 16 13 21 21 13 21 -2 0 -10 -8 -17
-17z"/>
<path d="M1830 1256 c0 -2 7 -7 16 -10 8 -3 12 -2 9 4 -6 10 -25 14 -25 6z"/>
<path d="M630 1175 c0 -42 3 -55 15 -55 8 0 15 8 15 18 1 16 1 16 11 -1 10
-18 11 -18 25 0 12 17 13 17 14 1 0 -10 7 -18 15 -18 12 0 15 13 15 55 0 48
-2 55 -20 55 -13 0 -22 -9 -26 -26 l-7 -27 -14 27 c-24 46 -43 33 -43 -29z"/>
<path d="M765 1178 c-8 -28 -13 -54 -10 -56 3 -3 17 1 32 9 20 11 27 11 30 2
3 -7 12 -13 20 -13 12 0 14 7 10 28 -20 98 -57 112 -82 30z m42 -10 c-3 -8 -6
-5 -6 6 -1 11 2 17 5 13 3 -3 4 -12 1 -19z"/>
<path d="M870 1175 c0 -42 3 -55 15 -55 8 0 15 8 15 18 1 16 1 16 14 0 7 -10
21 -18 30 -18 14 0 15 4 6 20 -8 14 -7 25 2 39 17 28 -5 51 -48 51 l-34 0 0
-55z m50 14 c0 -5 -4 -9 -10 -9 -5 0 -10 7 -10 16 0 8 5 12 10 9 6 -3 10 -10
10 -16z"/>
<path d="M970 1175 c0 -48 2 -55 20 -55 12 0 20 7 20 18 1 16 1 16 14 0 13
-17 52 -26 44 -10 -2 4 -10 19 -17 34 -13 25 -12 30 4 48 18 19 17 20 -1 20
-11 0 -25 -5 -32 -12 -9 -9 -12 -9 -12 0 0 7 -9 12 -20 12 -18 0 -20 -7 -20
-55z"/>
<path d="M1080 1175 l0 -55 40 0 c29 0 40 4 40 15 0 9 -10 15 -22 16 -17 1
-19 2 -5 6 9 2 17 11 17 18 0 7 -8 16 -17 18 -14 4 -12 5 5 6 12 1 22 7 22 16
0 11 -11 15 -40 15 l-40 0 0 -55z"/>
<path d="M1170 1215 c0 -8 7 -15 15 -15 11 0 15 -11 15 -40 0 -33 3 -40 20
-40 17 0 20 7 20 40 0 22 5 40 10 40 6 0 10 7 10 15 0 11 -12 15 -45 15 -33 0
-45 -4 -45 -15z"/>
<path d="M1280 1175 c0 -42 3 -55 15 -55 12 0 15 13 15 55 0 42 -3 55 -15 55
-12 0 -15 -13 -15 -55z"/>
<path d="M1330 1175 c0 -42 3 -55 15 -55 9 0 15 9 16 23 l0 22 16 -22 c8 -13
23 -23 32 -23 13 0 15 9 13 55 -3 39 -8 55 -18 55 -8 0 -14 -10 -15 -22 l0
-23 -11 23 c-6 12 -19 22 -30 22 -15 0 -18 -8 -18 -55z"/>
<path d="M1451 1211 c-15 -28 -14 -66 3 -80 8 -7 30 -11 48 -9 29 3 33 6 33
33 0 24 -5 31 -24 33 -20 3 -23 0 -18 -18 3 -14 1 -20 -6 -17 -21 7 -13 41 11
47 34 8 32 25 -5 28 -23 2 -34 -2 -42 -17z"/>
<path d="M1742 1200 c0 -14 2 -19 5 -12 2 6 2 18 0 25 -3 6 -5 1 -5 -13z"/>
<path d="M270 1185 c13 -14 26 -25 28 -25 3 0 -5 11 -18 25 -13 14 -26 25 -28
25 -3 0 5 -11 18 -25z"/>
<path d="M429 1183 c-13 -16 -12 -17 4 -4 9 7 17 15 17 17 0 8 -8 3 -21 -13z"/>
<path d="M1846 1162 l-19 -27 24 22 c12 12 21 24 18 27 -2 2 -13 -8 -23 -22z"/>
<path d="M1715 1156 c0 -33 24 -59 41 -46 9 8 15 6 23 -7 9 -16 10 -16 11 -2
0 20 -26 33 -36 18 -10 -16 -35 11 -29 32 3 9 2 20 -3 22 -4 3 -8 -5 -7 -17z"/>
<path d="M423 1124 c-3 -8 -1 -20 5 -26 8 -8 9 -5 5 11 -4 15 -1 21 12 21 13
0 16 -6 12 -21 -4 -16 -3 -19 5 -11 14 14 3 42 -17 42 -9 0 -18 -7 -22 -16z"/>
<path d="M288 1108 c4 -18 2 -20 -18 -15 -16 4 -20 3 -12 -5 6 -6 18 -8 26 -5
17 7 21 32 7 41 -5 4 -7 -4 -3 -16z"/>
<path d="M314 1047 c-10 -28 1 -150 14 -153 7 -1 8 0 2 3 -5 2 -10 38 -10 79
l0 74 115 0 115 0 0 -75 0 -75 -84 0 c-47 0 -87 -3 -89 -7 -3 -5 36 -6 86 -3
l92 5 0 80 0 80 -118 3 c-93 2 -119 0 -123 -11z"/>
<path d="M615 1050 c-3 -6 1 -7 9 -4 18 7 21 14 7 14 -6 0 -13 -4 -16 -10z"/>
<path d="M913 1053 l77 -4 0 -84 c0 -73 2 -84 16 -78 12 4 13 8 3 14 -10 6
-10 12 4 27 9 10 17 22 17 27 0 5 -7 0 -15 -11 -13 -18 -14 -17 -15 18 0 30 4
37 23 41 22 4 22 4 0 6 -14 1 -23 9 -25 24 -3 21 -8 22 -83 23 l-80 0 78 -3z"/>
<path d="M1140 1056 c0 -2 7 -7 16 -10 8 -3 12 -2 9 4 -6 10 -25 14 -25 6z"/>
<path d="M1643 1053 c9 -2 23 -2 30 0 6 3 -1 5 -18 5 -16 0 -22 -2 -12 -5z"/>
<path d="M1120 1036 c0 -8 4 -17 9 -20 5 -4 7 3 4 14 -6 23 -13 26 -13 6z"/>
<path d="M1364 1028 l-19 -23 25 20 c14 11 27 21 29 22 2 2 0 3 -6 3 -5 0 -18
-10 -29 -22z"/>
<path d="M1834 1035 c-9 -23 3 -45 25 -45 11 0 22 4 25 9 3 4 -6 6 -21 3 -23
-4 -25 -2 -21 22 6 28 1 35 -8 11z"/>
<path d="M646 1023 c-6 -14 -5 -15 5 -6 7 7 10 15 7 18 -3 3 -9 -2 -12 -12z"/>
<path d="M1072 1020 c0 -14 2 -19 5 -12 2 6 2 18 0 25 -3 6 -5 1 -5 -13z"/>
<path d="M1325 941 c-55 -59 -63 -71 -26 -36 30 28 66 63 80 78 18 20 31 26
44 21 17 -6 17 -7 0 -28 l-18 -21 23 19 c22 19 22 19 3 38 -11 10 -21 17 -23
17 -2 -1 -39 -40 -83 -88z"/>
<path d="M1535 1000 c-16 -16 -27 -31 -24 -33 2 -2 17 11 32 30 36 41 31 43
-8 3z"/>
<path d="M1765 1010 c10 -11 20 -20 23 -20 3 0 -3 9 -13 20 -10 11 -20 20 -23
20 -3 0 3 -9 13 -20z"/>
<path d="M752 990 c0 -14 2 -19 5 -12 2 6 2 18 0 25 -3 6 -5 1 -5 -13z"/>
<path d="M780 1001 c0 -4 11 -6 25 -3 14 2 25 6 25 8 0 2 -11 4 -25 4 -14 0
-25 -4 -25 -9z"/>
<path d="M903 996 c-4 -8 -17 -15 -27 -17 -19 -4 -19 -4 -1 -19 11 -9 16 -10
11 -2 -4 6 -3 12 3 12 6 0 15 9 21 20 12 22 6 28 -7 6z"/>
<path d="M1238 993 c12 -2 30 -2 40 0 9 3 -1 5 -23 4 -22 0 -30 -2 -17 -4z"/>
<path d="M355 979 c-4 -6 -5 -12 -2 -15 2 -3 7 2 10 11 7 17 1 20 -8 4z"/>
<path d="M485 979 c-4 -6 -4 -13 -1 -16 3 -4 6 -1 6 5 0 7 5 12 11 12 6 0 8
-7 4 -17 -5 -14 -3 -15 6 -6 12 12 5 33 -11 33 -5 0 -12 -5 -15 -11z"/>
<path d="M920 979 c0 -5 7 -9 16 -9 14 0 15 -2 3 -17 -11 -15 -10 -14 9 1 27
24 27 23 -3 28 -14 3 -25 1 -25 -3z"/>
<path d="M1185 980 c-3 -6 1 -7 9 -4 18 7 21 14 7 14 -6 0 -13 -4 -16 -10z"/>
<path d="M1300 986 c0 -2 7 -7 16 -10 8 -3 12 -2 9 4 -6 10 -25 14 -25 6z"/>
<path d="M376 963 c-6 -14 -5 -15 5 -6 7 7 10 15 7 18 -3 3 -9 -2 -12 -12z"/>
<path d="M1559 963 c-12 -16 -12 -17 1 -6 8 6 26 13 40 16 l25 4 -26 2 c-15 0
-33 -7 -40 -16z"/>
<path d="M1686 972 c-3 -5 8 -6 25 -4 16 2 29 6 29 8 0 8 -49 4 -54 -4z"/>
<path d="M1796 967 c3 -10 9 -15 12 -12 3 3 0 11 -7 18 -10 9 -11 8 -5 -6z"/>
<path d="M1642 954 c10 -10 20 -16 22 -13 3 3 -5 11 -17 18 -21 13 -21 12 -5
-5z"/>
<path d="M760 953 c0 -6 9 -21 21 -34 l20 -24 -17 30 c-24 39 -24 40 -24 28z"/>
<path d="M1046 933 c-6 -14 -5 -15 5 -6 7 7 10 15 7 18 -3 3 -9 -2 -12 -12z"/>
<path d="M1184 928 l-19 -23 23 19 c21 18 27 26 19 26 -2 0 -12 -10 -23 -22z"/>
<path d="M880 924 c0 -8 5 -12 10 -9 6 4 8 11 5 16 -9 14 -15 11 -15 -7z"/>
<path d="M922 924 c10 -10 20 -16 22 -13 3 3 -5 11 -17 18 -21 13 -21 12 -5
-5z"/>
<path d="M1135 929 c-4 -6 -5 -12 -2 -15 2 -3 7 2 10 11 7 17 1 20 -8 4z"/>
<path d="M1542 920 c0 -14 2 -19 5 -12 2 6 2 18 0 25 -3 6 -5 1 -5 -13z"/>
<path d="M1210 905 c-19 -22 -8 -25 13 -3 9 10 13 18 8 18 -5 0 -14 -7 -21
-15z"/>
<path d="M1492 895 c0 -16 2 -22 5 -12 2 9 2 23 0 30 -3 6 -5 -1 -5 -18z"/>
<path d="M640 896 c0 -8 4 -17 9 -20 5 -4 7 3 4 14 -6 23 -13 26 -13 6z"/>
<path d="M1381 894 c0 -11 3 -14 6 -6 3 7 2 16 -1 19 -3 4 -6 -2 -5 -13z"/>
<path d="M1121 884 c0 -11 3 -14 6 -6 3 7 2 16 -1 19 -3 4 -6 -2 -5 -13z"/>
<path d="M975 860 c-3 -5 -32 -10 -63 -10 -31 0 -52 -4 -46 -8 6 -4 14 -14 17
-22 4 -12 6 -11 6 3 1 14 8 17 36 15 22 -1 41 4 52 15 10 9 14 17 11 17 -4 0
-10 -4 -13 -10z"/>
<path d="M1560 866 c0 -2 8 -10 18 -17 15 -13 16 -12 3 4 -13 16 -21 21 -21
13z"/>
<path d="M1122 840 c0 -14 2 -19 5 -12 2 6 2 18 0 25 -3 6 -5 1 -5 -13z"/>
<path d="M1705 818 l-40 -43 43 40 c23 21 42 40 42 42 0 8 -9 0 -45 -39z"/>
<path d="M1381 834 c0 -11 3 -14 6 -6 3 7 2 16 -1 19 -3 4 -6 -2 -5 -13z"/>
<path d="M602 834 c9 -3 19 -13 22 -22 3 -12 4 -12 3 3 -1 12 -10 21 -22 22
-15 1 -15 0 -3 -3z"/>
<path d="M1160 831 c0 -6 4 -13 10 -16 6 -3 7 1 4 9 -7 18 -14 21 -14 7z"/>
<path d="M1200 836 c0 -2 8 -10 18 -17 15 -13 16 -12 3 4 -13 16 -21 21 -21
13z"/>
<path d="M1289 823 c-13 -16 -12 -17 4 -4 16 13 21 21 13 21 -2 0 -10 -8 -17
-17z"/>
<path d="M1336 823 c-6 -14 -5 -15 5 -6 7 7 10 15 7 18 -3 3 -9 -2 -12 -12z"/>
<path d="M455 785 c0 -18 3 -31 8 -28 4 2 7 15 7 28 0 13 -3 26 -7 28 -5 3 -8
-10 -8 -28z"/>
<path d="M1630 795 c13 -14 26 -25 28 -25 3 0 -5 11 -18 25 -13 14 -26 25 -28
25 -3 0 5 -11 18 -25z"/>
<path d="M581 794 c0 -11 3 -14 6 -6 3 7 2 16 -1 19 -3 4 -6 -2 -5 -13z"/>
<path d="M931 793 c-1 -16 -7 -23 -21 -23 -14 0 -18 5 -14 18 5 16 5 16 -6 0
-6 -10 -20 -18 -30 -18 -10 0 -21 -3 -23 -7 -3 -5 29 -6 71 -4 43 3 67 6 55 8
-13 3 -24 13 -26 26 l-4 22 -2 -22z"/>
<path d="M1248 803 c7 -3 16 -2 19 1 4 3 -2 6 -13 5 -11 0 -14 -3 -6 -6z"/>
<path d="M1535 780 c10 -11 20 -20 23 -20 3 0 -3 9 -13 20 -10 11 -20 20 -23
20 -3 0 3 -9 13 -20z"/>
<path d="M1155 770 c10 -11 20 -20 23 -20 3 0 -3 9 -13 20 -10 11 -20 20 -23
20 -3 0 3 -9 13 -20z"/>
<path d="M1207 779 c7 -7 15 -10 18 -7 3 3 -2 9 -12 12 -14 6 -15 5 -6 -5z"/>
<path d="M1290 780 c-9 -6 -10 -10 -3 -10 6 0 15 5 18 10 8 12 4 12 -15 0z"/>
<path d="M1344 768 l-19 -23 23 19 c21 18 27 26 19 26 -2 0 -12 -10 -23 -22z"/>
<path d="M1422 770 c0 -14 2 -19 5 -12 2 6 2 18 0 25 -3 6 -5 1 -5 -13z"/>
<path d="M1462 770 c0 -14 2 -19 5 -12 2 6 2 18 0 25 -3 6 -5 1 -5 -13z"/>
<path d="M402 754 c9 -9 21 -15 27 -13 6 2 -2 10 -17 17 -25 11 -25 11 -10 -4z"/>
<path d="M614 758 c1 -8 21 -14 45 -16 32 -2 41 -7 37 -18 -3 -8 -1 -14 4 -14
6 0 10 -7 10 -15 0 -8 -5 -15 -11 -15 -5 0 -7 -5 -3 -12 14 -22 26 25 15 55
-9 23 -16 27 -50 27 -22 0 -42 5 -44 10 -3 6 -4 5 -3 -2z"/>
<path d="M525 690 c0 -38 3 -70 8 -70 4 0 7 32 7 70 0 39 -3 70 -7 70 -5 0 -8
-31 -8 -70z"/>
<path d="M1577 749 c7 -7 15 -10 18 -7 3 3 -2 9 -12 12 -14 6 -15 5 -6 -5z"/>
<path d="M1047 734 c-11 -12 -7 -58 7 -76 14 -20 46 -24 46 -7 0 5 -5 7 -10 4
-18 -11 -40 15 -40 46 0 25 4 29 29 29 26 0 30 -4 34 -32 l5 -33 -2 35 c-1 31
-4 35 -31 38 -17 2 -34 0 -38 -4z"/>
<path d="M1688 733 c7 -3 16 -2 19 1 4 3 -2 6 -13 5 -11 0 -14 -3 -6 -6z"/>
<path d="M772 710 c0 -14 2 -19 5 -12 2 6 2 18 0 25 -3 6 -5 1 -5 -13z"/>
<path d="M742 670 c0 -14 2 -19 5 -12 2 6 2 18 0 25 -3 6 -5 1 -5 -13z"/>
<path d="M1270 680 c-8 -5 -28 -10 -43 -10 -24 0 -28 -4 -25 -22 2 -13 7 -22
13 -20 5 2 12 -5 16 -15 7 -17 8 -17 8 0 1 16 3 16 32 2 17 -9 33 -14 35 -12
3 2 -9 10 -26 17 -36 15 -38 32 -7 53 24 17 22 23 -3 7z m-30 -30 c0 -5 -7
-10 -15 -10 -8 0 -15 5 -15 10 0 6 7 10 15 10 8 0 15 -4 15 -10z"/>
<path d="M1452 675 c-15 -18 -1 -20 16 -3 9 9 15 9 24 0 7 -7 16 -12 21 -12 5
0 2 7 -7 15 -18 19 -37 19 -54 0z"/>
<path d="M780 673 c0 -6 8 -17 18 -24 16 -13 16 -13 2 6 -8 11 -16 22 -17 24
-2 2 -3 0 -3 -6z"/>
<path d="M1656 667 c3 -10 9 -15 12 -12 3 3 0 11 -7 18 -10 9 -11 8 -5 -6z"/>
<path d="M1314 649 c0 -10 4 -19 8 -19 4 0 8 6 8 14 0 8 -4 17 -8 20 -4 2 -8
-4 -8 -15z"/>
<path d="M1419 668 c-5 -9 -5 -48 -1 -43 6 6 11 45 5 45 -2 0 -4 -1 -4 -2z"/>
<path d="M1535 650 c2 -27 10 -33 12 -10 1 11 -2 22 -6 24 -4 3 -7 -4 -6 -14z"/>
<path d="M1449 633 c-12 -16 -12 -17 1 -7 8 6 22 14 30 17 13 5 12 6 -1 6 -9
1 -23 -7 -30 -16z"/>
<path d="M1628 638 c5 -5 16 -8 23 -6 8 3 3 7 -10 11 -17 4 -21 3 -13 -5z"/>
<path d="M823 585 c0 -33 2 -45 4 -27 2 18 2 45 0 60 -2 15 -4 0 -4 -33z"/>
<path d="M893 614 c-3 -8 -1 -20 5 -26 8 -8 9 -4 5 12 -5 20 -3 22 15 18 12
-4 20 -2 16 3 -9 14 -34 10 -41 -7z"/>
<path d="M1161 588 c-2 -24 18 -32 37 -15 9 8 24 12 32 10 13 -4 13 -3 0 6
-10 7 -19 6 -31 -5 -20 -18 -27 -18 -32 4 -4 15 -5 15 -6 0z"/>
<path d="M1410 583 c5 -2 7 -9 4 -14 -9 -14 15 -39 32 -32 8 3 14 0 14 -6 0
-6 9 -11 20 -11 11 0 20 5 20 11 0 6 6 9 14 6 17 -7 41 18 32 32 -3 5 -1 12 4
14 6 3 5 4 -2 3 -7 -1 -13 -11 -13 -22 0 -11 -6 -18 -14 -16 -7 1 -19 -3 -27
-9 -11 -9 -17 -9 -28 0 -8 6 -20 10 -27 9 -8 -2 -14 5 -14 16 0 11 -6 21 -13
22 -7 1 -8 0 -2 -3z"/>
<path d="M1449 577 c7 -10 21 -17 31 -17 10 0 24 7 31 17 13 15 12 15 -8 2
-20 -12 -26 -12 -45 0 -21 13 -22 13 -9 -2z"/>
<path d="M1020 524 c0 -41 -3 -53 -12 -48 -10 6 -10 5 -1 -7 6 -8 13 -25 16
-39 2 -14 5 14 6 63 0 48 -1 87 -4 87 -3 0 -5 -25 -5 -56z"/>
<path d="M1132 495 l1 -90 7 80 c3 44 2 84 -2 90 -4 5 -7 -31 -6 -80z"/>
<path d="M1185 540 c-14 -16 -20 -17 -27 -8 -5 9 -8 10 -8 1 0 -23 17 -22 40
2 13 14 21 25 18 25 -3 0 -13 -9 -23 -20z"/>
<path d="M1269 523 c-13 -16 -12 -17 4 -4 16 13 21 21 13 21 -2 0 -10 -8 -17
-17z"/>
<path d="M1330 536 c0 -2 8 -10 18 -17 15 -13 16 -12 3 4 -13 16 -21 21 -21
13z"/>
<path d="M703 513 c20 -2 54 -2 75 0 20 2 3 4 -38 4 -41 0 -58 -2 -37 -4z"/>
<path d="M879 493 c-13 -15 -12 -15 7 -3 28 17 54 7 55 -22 1 -18 2 -19 6 -5
10 40 -41 63 -68 30z"/>
<path d="M1058 473 c12 -2 32 -2 45 0 12 2 2 4 -23 4 -25 0 -35 -2 -22 -4z"/>
<path d="M1298 443 c6 -2 18 -2 25 0 6 3 1 5 -13 5 -14 0 -19 -2 -12 -5z"/>
<path d="M0 85 l0 -85 1080 0 1080 0 0 85 0 85 -1080 0 -1080 0 0 -85z m218
13 c14 5 15 4 2 -10 -9 -10 -17 -12 -21 -6 -4 6 -9 5 -12 -3 -3 -8 -6 -3 -6
11 -1 18 2 21 10 13 6 -6 19 -9 27 -5z m78 3 c-19 -7 -19 -8 2 -13 14 -4 22
-1 25 11 3 9 5 3 6 -13 0 -16 -2 -26 -6 -23 -3 4 -12 2 -20 -5 -11 -8 -17 -8
-26 2 -9 9 -9 11 0 6 6 -3 14 -2 17 3 3 5 -1 11 -9 15 -23 8 -18 26 8 25 20 0
21 -1 3 -8z m143 -7 c4 3 7 -3 7 -13 0 -10 -6 -18 -13 -18 -8 0 -13 11 -12 26
0 14 3 20 6 13 2 -6 8 -10 12 -8z m-42 -7 c-9 -7 -9 -10 1 -14 6 -2 12 -9 12
-14 0 -6 -8 -6 -19 1 -14 7 -22 7 -26 0 -9 -15 -25 -2 -25 20 0 14 7 18 35 17
23 -1 31 -4 22 -10z m1329 -10 c8 3 14 0 14 -7 0 -15 -33 -9 -36 8 -1 7 0 8 2
3 3 -6 12 -7 20 -4z m61 -9 c-3 -8 -6 -5 -6 6 -1 11 2 17 5 13 3 -3 4 -12 1
-19z m141 10 c-3 -7 -21 -13 -41 -13 -20 -1 -34 3 -31 7 3 5 19 7 35 4 16 -2
29 0 29 5 0 5 3 9 6 9 3 0 4 -5 2 -12z m48 -7 c1 -6 0 -7 -2 -2 -3 6 -12 7
-20 4 -8 -3 -14 -1 -14 5 0 14 33 8 36 -7z m124 -2 c0 -6 -4 -7 -10 -4 -5 3
-10 11 -10 16 0 6 5 7 10 4 6 -3 10 -11 10 -16z m-2000 1 c0 -5 -5 -10 -11
-10 -5 0 -7 5 -4 10 3 6 8 10 11 10 2 0 4 -4 4 -10z m24 -6 c3 -8 2 -12 -4 -9
-6 3 -10 10 -10 16 0 14 7 11 14 -7z m37 -1 c13 -16 12 -17 -3 -4 -17 13 -22
21 -14 21 2 0 10 -8 17 -17z m89 13 c0 -2 -8 -10 -17 -17 -16 -13 -17 -12 -4
4 13 16 21 21 21 13z m1355 -5 c-9 -8 -36 -10 -30 -2 2 4 11 8 20 8 8 0 13 -3
10 -6z m50 -1 c3 -5 1 -10 -4 -10 -6 0 -11 5 -11 10 0 6 2 10 4 10 3 0 8 -4
11 -10z m35 0 c0 -5 -5 -10 -11 -10 -5 0 -7 5 -4 10 3 6 8 10 11 10 2 0 4 -4
4 -10z m80 0 c0 -5 -5 -10 -11 -10 -5 0 -7 5 -4 10 3 6 8 10 11 10 2 0 4 -4 4
-10z"/>
<path d="M350 74 c0 -8 5 -12 10 -9 6 3 10 10 10 16 0 5 -4 9 -10 9 -5 0 -10
-7 -10 -16z"/>
</g>
</svg>
