<?xml version="1.0" standalone="no"?>
<!DOCTYPE svg PUBLIC "-//W3C//DTD SVG 20010904//EN"
 "http://www.w3.org/TR/2001/REC-SVG-20010904/DTD/svg10.dtd">
<svg version="1.0" xmlns="http://www.w3.org/2000/svg"
 width="225.000000pt" height="225.000000pt" viewBox="0 0 225.000000 225.000000"
 preserveAspectRatio="xMidYMid meet">

<g transform="translate(0.000000,225.000000) scale(0.100000,-0.100000)"
fill="#000000" stroke="none">
<path d="M585 1681 c-51 -23 -111 -89 -124 -138 -16 -56 -15 -724 1 -777 8
-25 31 -59 59 -87 65 -66 97 -71 404 -67 242 3 250 4 250 23 0 19 -8 20 -280
25 -186 3 -287 9 -300 17 -31 18 -73 65 -84 96 -7 18 -11 157 -11 384 0 342 1
359 21 400 14 29 35 52 63 68 l43 25 372 0 c398 0 400 0 448 -52 48 -51 53
-82 53 -318 0 -193 2 -221 16 -227 9 -3 20 0 25 8 6 8 8 114 7 244 -3 213 -5
233 -25 270 -27 51 -68 90 -115 109 -32 14 -95 16 -410 16 -339 0 -377 -2
-413 -19z"/>
<path d="M856 1348 c-13 -18 -16 -55 -16 -195 0 -160 2 -175 20 -193 11 -11
25 -20 31 -20 24 0 329 183 334 201 3 10 2 26 -4 36 -11 22 -305 193 -331 193
-10 0 -26 -10 -34 -22z"/>
<path d="M1363 1091 c5 -41 136 -313 215 -448 52 -89 132 -118 189 -69 24 21
28 31 28 78 0 73 -36 129 -98 153 -42 16 -47 16 -81 0 -20 -10 -38 -16 -40
-14 -2 2 -48 76 -102 164 -53 88 -102 165 -107 170 -6 6 -8 -6 -4 -34z m169
-276 c0 -5 -5 -11 -11 -13 -6 -2 -11 4 -11 13 0 9 5 15 11 13 6 -2 11 -8 11
-13z m181 -71 c38 -37 52 -86 35 -121 -34 -72 -138 -7 -140 87 -2 62 58 81
105 34z"/>
<path d="M1606 1015 c-68 -114 -68 -115 -51 -141 l17 -26 40 73 c58 106 93
210 71 209 -5 -1 -39 -52 -77 -115z"/>
<path d="M1350 809 c-62 -25 -100 -85 -100 -157 0 -63 34 -102 89 -102 51 0
90 30 132 101 l36 62 -21 38 c-20 37 -67 70 -98 68 -7 0 -24 -5 -38 -10z m84
-70 c13 -38 0 -77 -39 -116 -36 -36 -65 -42 -89 -17 -32 31 -11 115 36 149 34
24 81 16 92 -16z"/>
</g>
</svg>
